<svg xmlns="http://www.w3.org/2000/svg" width="96" height="96" viewBox="0 0 96 96" fill="none">
  <rect width="96" height="96" fill="white" fill-opacity="0.001"/>
  <g stroke="#b9a399" stroke-width="10" stroke-linecap="round" stroke-linejoin="round">
    <path d="M12 48c0-12 10-22 22-22s22 10 22 22-10 22-22 22S12 60 12 48Z"/>
    <path d="M48 12c12 0 22 10 22 22s-10 22-22 22S26 46 26 34 36 12 48 12Z"/>
    <path d="M48 40c4.4 0 8 3.6 8 8s-3.6 8-8 8-8-3.6-8-8 3.6-8 8-8Z" fill="#b9a399"/>
    <path d="M84 48c0 12-10 22-22 22S40 60 40 48s10-22 22-22 22 10 22 22Z"/>
    <path d="M48 84c-12 0-22-10-22-22s10-22 22-22 22 10 22 22-10 22-22 22Z"/>
  </g>
</svg>
